<?xml version="1.0" encoding="UTF-8"?>
<svg xmlns="http://www.w3.org/2000/svg" xmlns:xlink="http://www.w3.org/1999/xlink" width="38pt" height="38pt" viewBox="0 0 38 38" version="1.1">
<g id="surface1">
<path style=" stroke:none;fill-rule:nonzero;fill:rgb(0%,0%,0%);fill-opacity:1;" d="M 17.714844 1.507812 C 17.703125 1.515625 17.5 1.542969 17.257812 1.5625 C 16.519531 1.632812 16 1.714844 15.304688 1.871094 C 15.199219 1.890625 15.046875 1.925781 14.960938 1.941406 C 14.871094 1.960938 14.730469 1.996094 14.65625 2.019531 C 14.574219 2.042969 14.445312 2.082031 14.371094 2.101562 C 14.289062 2.125 14.164062 2.160156 14.089844 2.179688 C 14.019531 2.203125 13.910156 2.234375 13.84375 2.25 C 13.640625 2.304688 13.34375 2.40625 13.28125 2.445312 C 13.242188 2.464844 13.183594 2.480469 13.15625 2.480469 C 13.121094 2.480469 13.066406 2.496094 13.027344 2.519531 C 12.945312 2.558594 12.835938 2.605469 12.542969 2.714844 C 12.261719 2.824219 11.582031 3.121094 11.402344 3.214844 C 11.367188 3.234375 11.144531 3.355469 10.90625 3.472656 C 10.675781 3.59375 10.417969 3.730469 10.339844 3.773438 C 10.257812 3.820312 10.132812 3.894531 10.054688 3.9375 C 9.980469 3.980469 9.820312 4.082031 9.695312 4.164062 C 9.570312 4.246094 9.464844 4.316406 9.457031 4.316406 C 9.445312 4.316406 9.359375 4.371094 9.269531 4.429688 C 9.179688 4.492188 9.003906 4.617188 8.878906 4.703125 C 8.640625 4.867188 8.308594 5.121094 7.941406 5.410156 C 7.242188 5.96875 6.136719 7.066406 5.519531 7.808594 C 5.121094 8.285156 4.417969 9.238281 4.277344 9.488281 C 4.230469 9.570312 4.144531 9.710938 4.085938 9.792969 C 4.027344 9.878906 3.945312 10.011719 3.898438 10.09375 C 3.855469 10.167969 3.78125 10.300781 3.738281 10.375 C 3.421875 10.921875 3.148438 11.476562 2.851562 12.144531 C 2.480469 12.988281 2.082031 14.207031 1.871094 15.140625 C 1.847656 15.242188 1.816406 15.394531 1.792969 15.464844 C 1.777344 15.539062 1.75 15.667969 1.738281 15.753906 C 1.722656 15.835938 1.695312 15.988281 1.675781 16.09375 C 1.484375 17.148438 1.398438 18.628906 1.457031 19.933594 C 1.484375 20.707031 1.511719 20.96875 1.605469 21.652344 C 1.648438 22.015625 1.742188 22.503906 1.828125 22.914062 C 1.933594 23.394531 1.972656 23.527344 2.144531 24.121094 C 2.164062 24.199219 2.191406 24.3125 2.203125 24.375 C 2.214844 24.429688 2.238281 24.488281 2.253906 24.5 C 2.277344 24.511719 2.292969 24.5625 2.292969 24.613281 C 2.292969 24.660156 2.308594 24.714844 2.328125 24.726562 C 2.355469 24.734375 2.367188 24.785156 2.367188 24.835938 C 2.367188 24.882812 2.382812 24.9375 2.398438 24.953125 C 2.414062 24.976562 2.453125 25.0625 2.476562 25.148438 C 2.507812 25.230469 2.542969 25.339844 2.566406 25.394531 C 2.589844 25.449219 2.625 25.53125 2.644531 25.582031 C 2.667969 25.636719 2.695312 25.710938 2.714844 25.742188 C 2.734375 25.785156 2.75 25.835938 2.75 25.851562 C 2.75 25.925781 3.359375 27.1875 3.613281 27.648438 C 6.3125 32.523438 11.171875 35.867188 16.671875 36.617188 C 18.183594 36.824219 19.808594 36.828125 21.367188 36.636719 C 25.160156 36.164062 28.808594 34.359375 31.5625 31.597656 C 33.160156 30 34.300781 28.328125 35.292969 26.117188 C 35.625 25.390625 36.082031 23.992188 36.273438 23.128906 C 36.425781 22.457031 36.472656 22.203125 36.578125 21.445312 C 36.710938 20.539062 36.753906 19.316406 36.699219 18.214844 C 36.660156 17.507812 36.636719 17.242188 36.546875 16.570312 C 36.488281 16.144531 36.351562 15.425781 36.277344 15.121094 C 36.257812 15.046875 36.226562 14.902344 36.199219 14.796875 C 36.175781 14.691406 36.140625 14.5625 36.125 14.507812 C 36.109375 14.457031 36.074219 14.339844 36.046875 14.242188 C 35.980469 14.011719 35.636719 12.949219 35.589844 12.839844 C 35.554688 12.761719 35.535156 12.707031 35.4375 12.476562 C 35.183594 11.84375 34.539062 10.535156 34.328125 10.226562 C 34.28125 10.171875 34.253906 10.113281 34.253906 10.101562 C 34.253906 10.089844 34.167969 9.953125 34.070312 9.800781 C 33.964844 9.648438 33.875 9.5 33.863281 9.46875 C 33.851562 9.441406 33.75 9.292969 33.644531 9.144531 C 33.539062 8.996094 33.371094 8.769531 33.269531 8.628906 C 33.097656 8.386719 32.546875 7.691406 32.410156 7.542969 C 31.320312 6.335938 30.316406 5.433594 29.195312 4.652344 C 29.09375 4.585938 28.945312 4.480469 28.863281 4.417969 C 28.78125 4.363281 28.707031 4.316406 28.695312 4.316406 C 28.683594 4.316406 28.574219 4.246094 28.453125 4.164062 C 28.332031 4.082031 28.171875 3.980469 28.09375 3.9375 C 28.015625 3.894531 27.886719 3.820312 27.808594 3.773438 C 27.679688 3.695312 27.246094 3.472656 26.847656 3.261719 C 26.515625 3.097656 25.9375 2.839844 25.605469 2.714844 C 25.3125 2.605469 25.203125 2.558594 25.117188 2.519531 C 25.082031 2.496094 25.015625 2.480469 24.976562 2.480469 C 24.9375 2.480469 24.890625 2.464844 24.878906 2.445312 C 24.867188 2.417969 24.8125 2.40625 24.765625 2.40625 C 24.714844 2.40625 24.664062 2.390625 24.652344 2.371094 C 24.640625 2.355469 24.589844 2.328125 24.546875 2.316406 C 24.496094 2.304688 24.394531 2.28125 24.316406 2.253906 C 24.238281 2.234375 24.105469 2.199219 24.03125 2.171875 C 23.835938 2.121094 23.644531 2.066406 23.484375 2.019531 C 23.410156 1.996094 23.277344 1.960938 23.191406 1.941406 C 23.097656 1.925781 22.945312 1.890625 22.847656 1.871094 C 22.667969 1.832031 22.480469 1.792969 22.050781 1.714844 C 21.820312 1.671875 21.40625 1.617188 20.964844 1.5625 C 20.617188 1.519531 17.75 1.46875 17.714844 1.507812 Z M 13.039062 3.046875 C 13.042969 3.09375 13.074219 3.160156 13.109375 3.203125 C 13.144531 3.238281 13.171875 3.300781 13.171875 3.328125 C 13.171875 3.367188 13.183594 3.398438 13.207031 3.40625 C 13.253906 3.429688 13.402344 3.664062 13.402344 3.71875 C 13.402344 3.75 13.417969 3.78125 13.4375 3.789062 C 13.457031 3.789062 13.527344 3.902344 13.59375 4.027344 C 13.652344 4.15625 13.746094 4.308594 13.785156 4.375 C 13.824219 4.433594 13.859375 4.519531 13.859375 4.550781 C 13.863281 4.589844 13.878906 4.621094 13.90625 4.621094 C 13.925781 4.621094 13.9375 4.648438 13.929688 4.6875 C 13.917969 4.722656 13.96875 4.871094 14.039062 5.015625 C 14.113281 5.160156 14.164062 5.300781 14.152344 5.328125 C 14.140625 5.359375 14.152344 5.402344 14.179688 5.433594 C 14.207031 5.457031 14.242188 5.523438 14.265625 5.574219 C 14.289062 5.628906 14.34375 5.75 14.394531 5.855469 C 14.433594 5.953125 14.472656 6.0625 14.472656 6.089844 C 14.472656 6.125 14.484375 6.148438 14.5 6.148438 C 14.53125 6.148438 14.566406 6.230469 14.660156 6.492188 C 14.691406 6.5625 14.726562 6.640625 14.746094 6.660156 C 14.765625 6.679688 14.757812 6.71875 14.730469 6.753906 C 14.707031 6.78125 14.703125 6.8125 14.722656 6.828125 C 14.769531 6.863281 15.246094 8.289062 15.222656 8.3125 C 15.210938 8.324219 15.230469 8.386719 15.257812 8.449219 C 15.292969 8.507812 15.308594 8.585938 15.296875 8.613281 C 15.289062 8.640625 15.304688 8.683594 15.335938 8.707031 C 15.398438 8.765625 15.402344 8.847656 15.34375 8.867188 C 15.308594 8.878906 15.308594 8.914062 15.347656 9.003906 C 15.375 9.074219 15.390625 9.15625 15.382812 9.195312 C 15.371094 9.238281 15.386719 9.308594 15.410156 9.359375 C 15.472656 9.46875 15.480469 9.699219 15.425781 9.699219 C 15.398438 9.699219 15.398438 9.726562 15.425781 9.777344 C 15.453125 9.820312 15.464844 9.992188 15.460938 10.152344 C 15.457031 10.3125 15.472656 10.484375 15.5 10.527344 C 15.523438 10.574219 15.542969 10.644531 15.542969 10.6875 C 15.542969 10.734375 15.566406 10.769531 15.613281 10.773438 C 15.65625 10.773438 15.648438 10.785156 15.578125 10.820312 C 15.527344 10.839844 15.476562 10.871094 15.464844 10.882812 C 15.453125 10.894531 15.292969 10.980469 15.101562 11.074219 C 14.917969 11.164062 14.65625 11.308594 14.542969 11.386719 C 14.421875 11.46875 14.304688 11.53125 14.289062 11.53125 C 14.261719 11.53125 14.242188 11.546875 14.242188 11.570312 C 14.242188 11.589844 14.222656 11.609375 14.191406 11.609375 C 14.167969 11.609375 14.109375 11.636719 14.070312 11.679688 C 14.027344 11.714844 13.933594 11.785156 13.863281 11.839844 C 13.789062 11.886719 13.71875 11.941406 13.707031 11.953125 C 13.699219 11.960938 13.628906 12.015625 13.554688 12.066406 C 13.191406 12.320312 12.28125 13.230469 12.027344 13.597656 C 11.980469 13.667969 11.925781 13.734375 11.914062 13.75 C 11.847656 13.808594 11.570312 14.199219 11.570312 14.234375 C 11.570312 14.261719 11.554688 14.285156 11.53125 14.285156 C 11.515625 14.285156 11.492188 14.300781 11.492188 14.324219 C 11.492188 14.339844 11.425781 14.460938 11.347656 14.578125 C 11.265625 14.699219 11.160156 14.878906 11.109375 14.988281 C 11.058594 15.089844 11.007812 15.1875 10.996094 15.195312 C 10.984375 15.210938 10.960938 15.246094 10.945312 15.289062 C 10.925781 15.347656 10.917969 15.347656 10.84375 15.273438 C 10.761719 15.1875 10.765625 15.1875 10.4375 15.195312 C 10.308594 15.199219 10.160156 15.183594 10.113281 15.15625 C 10.066406 15.132812 9.914062 15.113281 9.769531 15.117188 C 9.621094 15.121094 9.472656 15.105469 9.421875 15.082031 C 9.375 15.054688 9.265625 15.035156 9.179688 15.039062 C 9.085938 15.042969 9.007812 15.027344 8.980469 14.996094 C 8.953125 14.964844 8.894531 14.949219 8.84375 14.957031 C 8.792969 14.96875 8.707031 14.949219 8.644531 14.921875 C 8.585938 14.886719 8.515625 14.871094 8.488281 14.878906 C 8.464844 14.886719 8.398438 14.871094 8.335938 14.84375 C 8.28125 14.8125 8.210938 14.796875 8.183594 14.804688 C 8.160156 14.8125 8.089844 14.796875 8.03125 14.765625 C 7.976562 14.734375 7.902344 14.71875 7.871094 14.726562 C 7.847656 14.738281 7.792969 14.71875 7.757812 14.6875 C 7.714844 14.652344 7.679688 14.636719 7.667969 14.648438 C 7.636719 14.675781 7.140625 14.507812 7.0625 14.445312 C 7.023438 14.417969 6.992188 14.40625 6.976562 14.417969 C 6.964844 14.433594 6.871094 14.40625 6.777344 14.363281 C 6.6875 14.320312 6.578125 14.285156 6.546875 14.285156 C 6.519531 14.285156 6.492188 14.265625 6.492188 14.25 C 6.492188 14.234375 6.402344 14.191406 6.300781 14.167969 C 6.199219 14.140625 6.109375 14.101562 6.109375 14.082031 C 6.109375 14.070312 6.082031 14.054688 6.054688 14.054688 C 5.988281 14.054688 5.816406 13.976562 5.164062 13.660156 C 4.722656 13.453125 4.296875 13.289062 4.175781 13.289062 C 4.148438 13.289062 4.125 13.269531 4.125 13.25 C 4.125 13.226562 4.09375 13.214844 4.054688 13.214844 C 4.011719 13.214844 3.957031 13.1875 3.9375 13.164062 C 3.914062 13.132812 3.828125 13.078125 3.742188 13.039062 C 3.660156 13.003906 3.589844 12.957031 3.589844 12.9375 C 3.589844 12.921875 3.554688 12.910156 3.519531 12.910156 C 3.472656 12.910156 3.429688 12.886719 3.414062 12.863281 C 3.402344 12.84375 3.3125 12.789062 3.222656 12.75 C 3.054688 12.675781 3.019531 12.628906 3.09375 12.582031 C 3.113281 12.570312 3.132812 12.527344 3.132812 12.484375 C 3.132812 12.445312 3.148438 12.378906 3.164062 12.339844 C 3.207031 12.265625 3.320312 12.003906 3.417969 11.78125 C 3.558594 11.445312 3.847656 10.875 4.121094 10.40625 C 5.902344 7.285156 8.675781 4.789062 11.960938 3.34375 C 12.039062 3.3125 12.164062 3.261719 12.230469 3.230469 C 12.296875 3.203125 12.421875 3.15625 12.503906 3.128906 C 12.589844 3.101562 12.675781 3.0625 12.695312 3.046875 C 12.714844 3.03125 12.769531 3.015625 12.8125 3.015625 C 12.863281 3.015625 12.914062 2.996094 12.925781 2.976562 C 12.964844 2.914062 13.03125 2.953125 13.039062 3.046875 Z M 19.71875 12.605469 C 20.03125 12.644531 20.339844 12.699219 20.734375 12.789062 C 20.96875 12.84375 21.472656 13.019531 21.710938 13.136719 C 21.835938 13.191406 21.996094 13.265625 22.066406 13.296875 C 22.128906 13.324219 22.1875 13.359375 22.1875 13.375 C 22.1875 13.390625 22.203125 13.402344 22.226562 13.402344 C 22.269531 13.402344 22.769531 13.730469 23.003906 13.914062 C 23.347656 14.179688 23.496094 14.34375 23.503906 14.46875 C 23.511719 14.535156 23.507812 14.585938 23.5 14.585938 C 23.492188 14.585938 23.417969 14.527344 23.34375 14.449219 C 23.15625 14.269531 22.660156 13.917969 22.3125 13.714844 C 20.179688 12.472656 17.476562 12.566406 15.414062 13.957031 C 15.21875 14.089844 15.21875 14.089844 15.191406 14.007812 C 15.167969 13.910156 15.210938 13.859375 15.464844 13.683594 C 15.800781 13.453125 16.621094 13.023438 16.726562 13.019531 C 16.761719 13.019531 16.800781 13.007812 16.828125 12.992188 C 16.859375 12.960938 17.253906 12.835938 17.546875 12.761719 C 18.261719 12.582031 19.050781 12.527344 19.71875 12.605469 Z M 21.148438 13.519531 C 21.230469 13.558594 21.320312 13.597656 21.335938 13.597656 C 21.410156 13.597656 22.105469 13.96875 22.40625 14.171875 C 23.390625 14.832031 24.042969 15.640625 24.589844 16.859375 C 24.667969 17.035156 24.714844 17.167969 24.785156 17.414062 C 24.804688 17.507812 24.84375 17.617188 24.863281 17.648438 C 24.929688 17.773438 24.894531 17.816406 24.726562 17.867188 C 24.515625 17.929688 24.449219 17.90625 24.417969 17.769531 C 24.40625 17.710938 24.382812 17.628906 24.359375 17.597656 C 24.339844 17.558594 24.324219 17.484375 24.324219 17.433594 C 24.324219 17.382812 24.308594 17.328125 24.285156 17.316406 C 24.265625 17.308594 24.25 17.261719 24.25 17.226562 C 24.25 17.191406 24.203125 17.078125 24.15625 16.96875 C 24.105469 16.867188 24.035156 16.714844 23.996094 16.628906 C 23.957031 16.546875 23.847656 16.355469 23.742188 16.199219 C 23.644531 16.046875 23.5625 15.914062 23.5625 15.886719 C 23.5625 15.871094 23.550781 15.847656 23.535156 15.839844 C 23.511719 15.832031 23.425781 15.730469 23.335938 15.617188 C 23.125 15.355469 22.589844 14.832031 22.449219 14.75 C 22.390625 14.710938 22.339844 14.671875 22.339844 14.65625 C 22.339844 14.640625 22.320312 14.625 22.292969 14.625 C 22.269531 14.625 22.214844 14.59375 22.171875 14.550781 C 22.027344 14.421875 21.507812 14.148438 21.121094 13.996094 C 20.96875 13.933594 20.835938 13.863281 20.820312 13.835938 C 20.808594 13.808594 20.816406 13.734375 20.84375 13.679688 C 20.863281 13.621094 20.890625 13.546875 20.90625 13.503906 C 20.929688 13.421875 20.953125 13.425781 21.148438 13.519531 Z M 20.085938 14.046875 C 20.199219 14.074219 20.351562 14.101562 20.421875 14.117188 C 20.488281 14.128906 20.554688 14.152344 20.566406 14.171875 C 20.578125 14.1875 20.621094 14.207031 20.660156 14.207031 C 20.703125 14.207031 20.765625 14.222656 20.804688 14.238281 C 20.839844 14.257812 20.914062 14.289062 20.964844 14.3125 C 21.261719 14.429688 21.953125 14.792969 21.996094 14.851562 C 22.007812 14.867188 22.078125 14.921875 22.148438 14.96875 C 22.472656 15.191406 22.992188 15.714844 23.21875 16.035156 C 23.265625 16.109375 23.320312 16.179688 23.335938 16.191406 C 23.394531 16.234375 23.757812 16.925781 23.875 17.222656 C 23.894531 17.273438 23.929688 17.347656 23.945312 17.382812 C 23.964844 17.417969 23.980469 17.484375 23.980469 17.523438 C 23.980469 17.566406 24 17.613281 24.019531 17.625 C 24.042969 17.632812 24.054688 17.703125 24.054688 17.777344 C 24.054688 17.847656 24.074219 17.914062 24.09375 17.925781 C 24.152344 17.960938 24.183594 18.351562 24.183594 19.109375 C 24.183594 19.871094 24.152344 20.261719 24.09375 20.300781 C 24.074219 20.3125 24.054688 20.378906 24.054688 20.445312 C 24.054688 20.507812 24.042969 20.582031 24.027344 20.605469 C 24.011719 20.625 23.972656 20.707031 23.945312 20.792969 C 23.777344 21.335938 23.351562 22.074219 22.988281 22.464844 C 22.917969 22.546875 22.84375 22.636719 22.828125 22.664062 C 22.777344 22.746094 22.175781 23.242188 21.878906 23.433594 C 21.53125 23.664062 21.09375 23.878906 20.753906 23.988281 C 20.667969 24.011719 20.585938 24.046875 20.5625 24.066406 C 20.542969 24.082031 20.472656 24.09375 20.40625 24.09375 C 20.335938 24.09375 20.273438 24.109375 20.261719 24.128906 C 20.226562 24.191406 19.839844 24.222656 19.09375 24.226562 C 18.410156 24.226562 18.238281 24.207031 17.777344 24.101562 C 17.625 24.070312 17.308594 23.964844 17.164062 23.910156 C 16.957031 23.820312 16.554688 23.617188 16.542969 23.589844 C 16.535156 23.570312 16.511719 23.5625 16.492188 23.5625 C 16.429688 23.5625 15.925781 23.199219 15.695312 23 C 15.5 22.828125 15.347656 22.667969 15.101562 22.398438 C 14.964844 22.242188 14.625 21.738281 14.625 21.695312 C 14.625 21.675781 14.609375 21.652344 14.597656 21.644531 C 14.566406 21.632812 14.449219 21.398438 14.308594 21.078125 C 14.230469 20.898438 14.125 20.597656 14.082031 20.410156 C 13.976562 19.953125 13.960938 19.777344 13.960938 19.109375 C 13.960938 18.449219 13.976562 18.269531 14.082031 17.8125 C 14.269531 17.011719 14.789062 16.101562 15.425781 15.464844 C 15.90625 14.992188 16.558594 14.558594 17.183594 14.3125 C 17.238281 14.289062 17.308594 14.257812 17.34375 14.238281 C 17.382812 14.222656 17.449219 14.207031 17.484375 14.207031 C 17.527344 14.207031 17.570312 14.1875 17.578125 14.171875 C 17.59375 14.152344 17.65625 14.128906 17.726562 14.117188 C 17.792969 14.105469 17.949219 14.078125 18.074219 14.058594 C 18.199219 14.035156 18.3125 14.011719 18.320312 13.996094 C 18.367188 13.957031 19.859375 14.003906 20.085938 14.046875 Z M 13.574219 18.160156 C 13.613281 18.203125 13.625 18.25 13.609375 18.308594 C 13.5625 18.445312 13.578125 19.78125 13.628906 20.027344 C 13.710938 20.441406 13.820312 20.84375 13.863281 20.910156 C 13.875 20.925781 13.914062 21.019531 13.9375 21.117188 C 14.007812 21.335938 14.304688 21.921875 14.472656 22.171875 C 14.761719 22.589844 15.238281 23.105469 15.636719 23.429688 C 16.1875 23.878906 17.035156 24.304688 17.640625 24.441406 C 17.714844 24.460938 17.890625 24.496094 18.027344 24.527344 C 18.367188 24.605469 19.136719 24.640625 19.605469 24.601562 L 19.984375 24.570312 L 20.035156 24.699219 C 20.136719 24.941406 20.101562 24.992188 19.800781 25.027344 C 19.25 25.101562 18.300781 25.054688 17.804688 24.9375 C 17.714844 24.917969 17.574219 24.882812 17.5 24.863281 C 17.308594 24.820312 17.109375 24.746094 16.945312 24.664062 C 16.910156 24.644531 16.859375 24.628906 16.832031 24.628906 C 16.738281 24.628906 16.046875 24.253906 15.695312 24.019531 C 15.199219 23.691406 14.480469 22.957031 14.140625 22.449219 C 13.890625 22.078125 13.554688 21.445312 13.554688 21.347656 C 13.554688 21.328125 13.542969 21.277344 13.523438 21.238281 C 13.433594 21.066406 13.378906 20.898438 13.296875 20.5625 C 13.273438 20.480469 13.238281 20.339844 13.21875 20.257812 C 13.101562 19.800781 13.085938 18.5 13.195312 18.148438 C 13.21875 18.078125 13.496094 18.089844 13.574219 18.160156 Z M 27.40625 22.652344 C 27.394531 22.683594 27.382812 22.667969 27.382812 22.628906 C 27.382812 22.585938 27.390625 22.5625 27.402344 22.578125 C 27.414062 22.589844 27.417969 22.625 27.40625 22.652344 Z M 27.734375 22.765625 C 27.777344 22.789062 27.949219 22.804688 28.109375 22.800781 C 28.289062 22.796875 28.449219 22.8125 28.511719 22.84375 C 28.621094 22.894531 28.8125 22.90625 28.855469 22.863281 C 28.867188 22.847656 28.914062 22.855469 28.949219 22.875 C 29.007812 22.90625 29.023438 22.898438 29.023438 22.855469 C 29.023438 22.785156 29.078125 22.78125 29.183594 22.84375 C 29.234375 22.867188 29.324219 22.882812 29.390625 22.878906 C 29.453125 22.875 29.53125 22.894531 29.554688 22.929688 C 29.578125 22.957031 29.621094 22.976562 29.652344 22.964844 C 29.675781 22.953125 29.753906 22.96875 29.816406 23.003906 C 29.875 23.035156 29.9375 23.050781 29.949219 23.039062 C 29.960938 23.03125 30.273438 23.125 30.648438 23.253906 C 31.027344 23.386719 31.390625 23.488281 31.460938 23.484375 C 31.519531 23.484375 31.578125 23.496094 31.578125 23.511719 C 31.578125 23.53125 31.660156 23.566406 31.765625 23.59375 C 31.957031 23.65625 32.058594 23.707031 32.152344 23.785156 C 32.199219 23.828125 32.207031 23.828125 32.234375 23.769531 C 32.25 23.722656 32.261719 23.71875 32.261719 23.738281 C 32.265625 23.769531 32.304688 23.789062 32.34375 23.789062 C 32.386719 23.789062 32.417969 23.804688 32.417969 23.828125 C 32.417969 23.847656 32.445312 23.867188 32.476562 23.867188 C 32.507812 23.867188 32.824219 24.011719 33.175781 24.1875 C 33.527344 24.359375 33.832031 24.496094 33.855469 24.488281 C 33.882812 24.480469 33.957031 24.511719 34.03125 24.5625 C 34.101562 24.613281 34.234375 24.683594 34.324219 24.722656 C 34.410156 24.761719 34.484375 24.808594 34.484375 24.828125 C 34.484375 24.84375 34.507812 24.859375 34.539062 24.859375 C 34.597656 24.859375 34.832031 25.007812 34.855469 25.054688 C 34.863281 25.078125 34.902344 25.089844 34.941406 25.089844 C 34.972656 25.089844 35.027344 25.113281 35.054688 25.148438 C 35.082031 25.179688 35.125 25.199219 35.15625 25.1875 C 35.214844 25.164062 35.261719 25.226562 35.207031 25.261719 C 35.1875 25.269531 35.171875 25.320312 35.171875 25.371094 C 35.171875 25.417969 35.15625 25.472656 35.136719 25.488281 C 35.121094 25.511719 35.085938 25.59375 35.058594 25.683594 C 35.03125 25.765625 34.980469 25.894531 34.953125 25.964844 C 34.921875 26.039062 34.867188 26.164062 34.832031 26.234375 C 33.613281 29.019531 31.621094 31.453125 29.125 33.210938 C 28.320312 33.789062 27.160156 34.445312 26.40625 34.769531 C 26.320312 34.804688 26.183594 34.863281 26.101562 34.90625 C 25.804688 35.039062 25.402344 35.152344 25.546875 35.054688 C 25.582031 35.027344 25.589844 35.011719 25.5625 34.988281 C 25.539062 34.96875 25.480469 34.886719 25.433594 34.800781 C 25.394531 34.710938 25.339844 34.632812 25.316406 34.617188 C 25.300781 34.601562 25.277344 34.566406 25.277344 34.539062 C 25.277344 34.503906 25.261719 34.460938 25.238281 34.433594 C 25.109375 34.292969 24.285156 32.628906 24.285156 32.515625 C 24.285156 32.484375 24.273438 32.460938 24.253906 32.460938 C 24.230469 32.460938 24.191406 32.378906 24.09375 32.113281 C 24.070312 32.042969 24.03125 31.964844 24.011719 31.945312 C 23.996094 31.925781 23.980469 31.886719 23.980469 31.859375 C 23.980469 31.832031 23.949219 31.734375 23.910156 31.644531 C 23.765625 31.308594 23.753906 31.277344 23.792969 31.25 C 23.824219 31.238281 23.820312 31.210938 23.792969 31.1875 C 23.773438 31.164062 23.753906 31.109375 23.753906 31.0625 C 23.753906 31.019531 23.734375 30.96875 23.722656 30.945312 C 23.671875 30.886719 23.589844 30.621094 23.617188 30.597656 C 23.625 30.582031 23.613281 30.546875 23.574219 30.507812 C 23.542969 30.46875 23.523438 30.414062 23.535156 30.390625 C 23.542969 30.359375 23.527344 30.289062 23.496094 30.234375 C 23.464844 30.171875 23.453125 30.101562 23.457031 30.082031 C 23.464844 30.050781 23.453125 29.980469 23.417969 29.925781 C 23.390625 29.867188 23.375 29.796875 23.382812 29.773438 C 23.390625 29.746094 23.375 29.675781 23.34375 29.617188 C 23.3125 29.554688 23.296875 29.46875 23.304688 29.417969 C 23.3125 29.367188 23.300781 29.308594 23.265625 29.285156 C 23.238281 29.257812 23.21875 29.175781 23.222656 29.054688 C 23.226562 28.957031 23.207031 28.851562 23.191406 28.820312 C 23.140625 28.761719 23.09375 28.5625 23.085938 28.332031 C 23.078125 28.230469 23.050781 28.117188 23.03125 28.074219 C 23.007812 28.03125 22.988281 27.84375 22.988281 27.648438 C 22.988281 27.320312 22.984375 27.304688 22.90625 27.300781 L 22.816406 27.289062 L 22.90625 27.273438 C 22.949219 27.269531 22.988281 27.246094 22.988281 27.226562 C 22.988281 27.207031 23.050781 27.164062 23.132812 27.121094 C 23.207031 27.089844 23.28125 27.050781 23.296875 27.039062 C 23.328125 27.003906 23.539062 26.878906 23.613281 26.855469 C 23.644531 26.847656 23.675781 26.820312 23.675781 26.800781 C 23.675781 26.785156 23.695312 26.769531 23.71875 26.769531 C 23.753906 26.769531 24.199219 26.480469 24.25 26.425781 C 24.257812 26.417969 24.371094 26.328125 24.496094 26.234375 C 25.015625 25.84375 25.847656 25.023438 26.117188 24.628906 C 26.167969 24.558594 26.222656 24.488281 26.234375 24.476562 C 26.304688 24.414062 26.578125 24.023438 26.578125 23.988281 C 26.578125 23.960938 26.59375 23.941406 26.617188 23.941406 C 26.640625 23.941406 26.652344 23.925781 26.652344 23.898438 C 26.652344 23.882812 26.71875 23.765625 26.796875 23.644531 C 26.878906 23.527344 27.019531 23.269531 27.117188 23.078125 L 27.28125 22.722656 L 27.46875 22.71875 C 27.570312 22.71875 27.691406 22.738281 27.734375 22.765625 Z M 22.84375 24.363281 C 22.878906 24.394531 22.53125 24.667969 22.457031 24.667969 C 22.433594 24.667969 22.414062 24.679688 22.414062 24.695312 C 22.414062 24.714844 22.378906 24.742188 22.328125 24.769531 C 21.867188 25 21.6875 25.09375 21.554688 25.148438 C 21.472656 25.179688 21.375 25.226562 21.335938 25.246094 C 21.300781 25.261719 21.234375 25.277344 21.195312 25.277344 C 21.15625 25.277344 21.109375 25.296875 21.097656 25.316406 C 21.085938 25.335938 21.03125 25.355469 20.984375 25.355469 C 20.933594 25.355469 20.878906 25.371094 20.867188 25.394531 C 20.859375 25.414062 20.789062 25.429688 20.71875 25.429688 C 20.652344 25.429688 20.582031 25.449219 20.558594 25.46875 C 20.523438 25.503906 20.472656 25.511719 19.648438 25.609375 C 18.875 25.699219 18.222656 25.636719 17.300781 25.394531 C 17.203125 25.367188 17.09375 25.332031 17.046875 25.316406 C 17.007812 25.304688 16.914062 25.265625 16.839844 25.242188 C 16.496094 25.117188 15.910156 24.828125 15.789062 24.722656 C 15.738281 24.679688 15.675781 24.628906 15.648438 24.621094 C 15.613281 24.605469 15.621094 24.59375 15.664062 24.59375 C 15.707031 24.589844 15.71875 24.570312 15.710938 24.535156 C 15.695312 24.503906 15.707031 24.476562 15.726562 24.476562 C 15.753906 24.476562 15.773438 24.492188 15.773438 24.515625 C 15.773438 24.535156 15.804688 24.554688 15.84375 24.554688 C 15.882812 24.554688 15.925781 24.566406 15.929688 24.578125 C 15.941406 24.613281 16.113281 24.699219 16.488281 24.863281 C 17.019531 25.101562 17.484375 25.230469 18.257812 25.355469 C 18.582031 25.40625 19.566406 25.40625 19.890625 25.351562 C 20.324219 25.28125 20.8125 25.164062 21.175781 25.042969 C 21.496094 24.9375 22.484375 24.472656 22.582031 24.382812 C 22.683594 24.296875 22.777344 24.253906 22.792969 24.304688 C 22.800781 24.324219 22.820312 24.355469 22.84375 24.363281 Z M 22.84375 24.363281 "/>
<path style=" stroke:none;fill-rule:nonzero;fill:rgb(0%,0%,0%);fill-opacity:1;" d="M 18.894531 18.699219 C 18.921875 18.710938 18.953125 18.707031 18.964844 18.695312 C 18.984375 18.6875 18.957031 18.675781 18.917969 18.679688 C 18.875 18.679688 18.863281 18.6875 18.894531 18.699219 Z M 18.894531 18.699219 "/>
</g>
</svg>
